# Blender 4.1.1
# www.blender.org
mtllib lixeira.mtl
o Cube
v -0.405690 2.334872 -0.005608
v -0.405690 2.391890 -0.005608
v -0.405690 2.334872 -0.070544
v -0.405690 2.391890 -0.070544
v 0.217335 2.334872 -0.005608
v 0.217335 2.391890 -0.005608
v 0.217335 2.334872 -0.070544
v 0.217335 2.391890 -0.070544
v 0.303421 2.334872 -0.005608
v 0.303421 2.391890 -0.005608
v 0.303421 2.334872 -0.070544
v 0.303421 2.391890 -0.070544
v 0.217335 2.179185 -0.005608
v 0.217335 2.179185 -0.070544
v 0.303421 2.179185 -0.005608
v 0.303421 2.179185 -0.070544
v -0.491498 2.334872 -0.005608
v -0.491498 2.391890 -0.005608
v -0.491498 2.334872 -0.070544
v -0.491498 2.391890 -0.070544
v -0.491498 2.179186 -0.005608
v -0.491498 2.179186 -0.070544
v -0.405412 2.179186 -0.005608
v -0.405412 2.179186 -0.070544
v -0.082938 0.118557 -1.000000
v -0.082938 2.118557 -1.000000
v 0.504847 0.118557 -0.809017
v 0.504847 2.118557 -0.809017
v 0.868118 0.118557 -0.309017
v 0.868118 2.118557 -0.309017
v 0.868118 0.118557 0.309017
v 0.868118 2.118557 0.309017
v 0.504847 0.118557 0.809017
v 0.504847 2.118557 0.809017
v -0.082938 0.118557 1.000000
v -0.082938 2.118557 1.000000
v -0.670724 0.118557 0.809017
v -0.670724 2.118557 0.809017
v -1.033995 0.118557 0.309017
v -1.033995 2.118557 0.309017
v -1.033995 0.118557 -0.309017
v -1.033995 2.118557 -0.309017
v -0.670724 0.118557 -0.809017
v -0.670724 2.118557 -0.809017
v 0.545600 2.118557 -0.865108
v -0.082938 2.118557 -1.069333
v 0.934058 2.118557 -0.330442
v 0.934058 2.118557 0.330442
v 0.545600 2.118557 0.865108
v -0.082938 2.118557 1.069333
v -0.711476 2.118557 0.865108
v -1.099934 2.118557 0.330442
v -1.099934 2.118557 -0.330442
v -0.711476 2.118557 -0.865108
v 0.545600 2.292796 -0.865108
v -0.082938 2.292796 -1.069333
v 0.934058 2.292796 -0.330442
v 0.934058 2.292796 0.330442
v 0.545600 2.292796 0.865108
v -0.082938 2.292796 1.069333
v -0.711476 2.292796 0.865108
v -1.099934 2.292796 0.330442
v -1.099934 2.292796 -0.330442
v -0.711476 2.292796 -0.865108
v 0.343441 2.292795 -0.586861
v -0.082938 2.292795 -0.725400
v 0.606958 2.292795 -0.224161
v 0.606958 2.292795 0.224161
v 0.343441 2.292795 0.586861
v -0.082938 2.292795 0.725400
v -0.509318 2.292795 0.586861
v -0.772835 2.292795 0.224161
v -0.772835 2.292795 -0.224161
v -0.509318 2.292795 -0.586861
v 0.343441 2.292795 -0.586861
v -0.082938 2.292795 -0.725400
v 0.606958 2.292795 -0.224161
v 0.606958 2.292795 0.224161
v 0.343441 2.292795 0.586861
v -0.082938 2.292795 0.725400
v -0.509318 2.292795 0.586861
v -0.772835 2.292795 0.224161
v -0.772835 2.292795 -0.224161
v -0.509318 2.292795 -0.586861
v 0.343441 2.177244 -0.586861
v -0.082938 2.177244 -0.725400
v 0.606958 2.177244 -0.224161
v 0.606958 2.177244 0.224161
v 0.343441 2.177244 0.586861
v -0.082938 2.177244 0.725400
v -0.509318 2.177244 0.586861
v -0.772835 2.177244 0.224161
v -0.772835 2.177244 -0.224161
v -0.509318 2.177244 -0.586861
v -0.082938 2.177244 0.000000
v -0.082938 2.177244 0.000000
v -0.082938 2.177244 0.000000
v -0.082938 2.177244 0.000000
v -0.082938 2.177244 0.000000
v -0.082938 2.177244 0.000000
v -0.082938 2.177244 0.000000
v -0.082938 2.177244 0.000000
v -0.082938 2.177244 0.000000
v -0.082938 2.177244 0.000000
v -0.082938 0.118557 -1.000000
v 0.504847 0.118557 -0.809017
v 0.868118 0.118557 -0.309017
v 0.868118 0.118557 0.309017
v 0.504847 0.118557 0.809017
v -0.082938 0.118557 1.000000
v -0.670724 0.118557 0.809017
v -1.033995 0.118557 0.309017
v -1.033995 0.118557 -0.309017
v -0.670724 0.118557 -0.809017
v -0.082938 0.118557 -1.000000
v 0.504847 0.118557 -0.809017
v 0.868118 0.118557 -0.309017
v 0.868118 0.118557 0.309017
v 0.504847 0.118557 0.809017
v -0.082938 0.118557 1.000000
v -0.670724 0.118557 0.809017
v -1.033995 0.118557 0.309017
v -1.033995 0.118557 -0.309017
v -0.670724 0.118557 -0.809017
v -0.082938 0.118557 -1.000000
v 0.504847 0.118557 -0.809017
v 0.868118 0.118557 -0.309017
v 0.868118 0.118557 0.309017
v 0.504847 0.118557 0.809017
v -0.082938 0.118557 1.000000
v -0.670724 0.118557 0.809017
v -1.033995 0.118557 0.309017
v -1.033995 0.118557 -0.309017
v -0.670724 0.118557 -0.809017
v -0.082938 0.118557 -0.737068
v 0.350299 0.118557 -0.596300
v 0.618055 0.118557 -0.227766
v 0.618055 0.118557 0.227767
v 0.350299 0.118557 0.596300
v -0.082938 0.118557 0.737068
v -0.516176 0.118557 0.596300
v -0.783932 0.118557 0.227767
v -0.783932 0.118557 -0.227766
v -0.516176 0.118557 -0.596300
v -0.082938 0.196804 -0.737068
v 0.350299 0.196804 -0.596300
v 0.618055 0.196804 -0.227766
v 0.618055 0.196804 0.227767
v 0.350299 0.196804 0.596300
v -0.082938 0.196804 0.737068
v -0.516176 0.196804 0.596300
v -0.783932 0.196804 0.227767
v -0.783932 0.196804 -0.227766
v -0.516176 0.196804 -0.596300
v -0.082938 0.196804 0.000000
v -0.082938 0.196804 0.000000
v -0.082938 0.196804 0.000000
v -0.082938 0.196804 0.000000
v -0.082938 0.196804 0.000000
v -0.082938 0.196804 0.000000
v -0.082938 0.196804 0.000000
v -0.082938 0.196804 0.000000
v -0.082938 0.196804 0.000000
v -0.082938 0.196804 0.000000
v 0.030898 0.238252 -0.963012
v 0.030898 1.998862 -0.963012
v 0.391010 1.998862 -0.846005
v 0.391010 0.238252 -0.846005
v 0.575202 0.238252 -0.712182
v 0.575202 1.998862 -0.712182
v 0.797763 1.998862 -0.405852
v 0.797763 0.238252 -0.405852
v 0.868118 0.238252 -0.189322
v 0.868118 1.998862 -0.189322
v 0.868118 1.998862 0.189322
v 0.868118 0.238252 0.189322
v 0.797763 0.238252 0.405852
v 0.797763 1.998862 0.405852
v 0.575202 1.998862 0.712182
v 0.575202 0.238252 0.712182
v 0.391010 0.238252 0.846005
v 0.391010 1.998862 0.846005
v 0.030898 1.998862 0.963012
v 0.030898 0.238252 0.963012
v -0.196775 0.238252 0.963012
v -0.196775 1.998862 0.963012
v -0.556887 1.998862 0.846005
v -0.556887 0.238252 0.846005
v -0.741079 0.238252 0.712182
v -0.741079 1.998862 0.712182
v -0.963640 1.998862 0.405852
v -0.963640 0.238252 0.405852
v -1.033995 0.238252 0.189322
v -1.033995 1.998862 0.189322
v -1.033995 1.998862 -0.189322
v -1.033995 0.238252 -0.189322
v -0.963640 0.238252 -0.405852
v -0.963640 1.998862 -0.405852
v -0.741079 1.998862 -0.712182
v -0.741079 0.238252 -0.712182
v -0.556887 0.238252 -0.846005
v -0.556887 1.998862 -0.846005
v -0.196775 1.998862 -0.963012
v -0.196775 0.238252 -0.963012
v 0.030529 0.282338 -0.931193
v 0.030529 1.954775 -0.931193
v 0.372606 0.282338 -0.820045
v 0.372606 1.954775 -0.820045
v 0.556200 1.954775 -0.686656
v 0.556200 0.282338 -0.686656
v 0.767615 0.282338 -0.395668
v 0.767615 1.954775 -0.395668
v 0.837742 1.954775 -0.179840
v 0.837742 0.282338 -0.179840
v 0.837742 0.282338 0.179840
v 0.837742 1.954775 0.179840
v 0.767615 1.954775 0.395668
v 0.767615 0.282338 0.395668
v 0.556200 0.282338 0.686656
v 0.556200 1.954775 0.686656
v 0.372606 1.954775 0.820045
v 0.372606 0.282338 0.820045
v 0.030529 0.282338 0.931193
v 0.030529 1.954775 0.931193
v -0.196406 1.954775 0.931193
v -0.196406 0.282338 0.931193
v -0.538483 0.282338 0.820045
v -0.538483 1.954775 0.820045
v -0.722077 1.954775 0.686656
v -0.722077 0.282338 0.686656
v -0.933492 0.282338 0.395668
v -0.933492 1.954775 0.395668
v -1.003619 1.954775 0.179840
v -1.003619 0.282338 0.179840
v -1.003619 0.282338 -0.179840
v -1.003619 1.954775 -0.179840
v -0.933492 1.954775 -0.395668
v -0.933492 0.282338 -0.395668
v -0.722077 0.282338 -0.686656
v -0.722077 1.954775 -0.686656
v -0.538483 1.954775 -0.820045
v -0.538483 0.282338 -0.820045
v -0.196406 0.282338 -0.931193
v -0.196406 1.954775 -0.931193
vn -1.0000 -0.0000 -0.0000
vn -0.0000 -0.0000 -1.0000
vn -0.0000 -0.0000 1.0000
vn -0.0000 -1.0000 -0.0000
vn -0.0000 1.0000 -0.0000
vn 1.0000 -0.0000 -0.0000
vn 1.0000 0.0018 -0.0000
vn -0.2980 -0.0000 0.9546
vn -0.8158 -0.0000 0.5784
vn 0.8158 -0.0000 -0.5784
vn 0.9880 -0.1544 -0.0000
vn 0.9398 -0.3416 -0.0000
vn -0.9880 -0.1544 -0.0000
vn -0.9398 -0.3416 -0.0000
vn 0.9880 0.1544 -0.0000
vn 0.9398 0.3416 -0.0000
vn -0.9880 0.1544 -0.0000
vn -0.9398 0.3416 -0.0000
vn -0.8158 -0.0000 -0.5784
vn 0.8158 -0.0000 0.5784
vn 0.2980 -0.0000 0.9546
vn -0.4706 -0.0000 0.8824
vn 0.9401 -0.0000 0.3410
vn 0.9401 -0.0000 -0.3410
vn -0.4706 -0.0000 -0.8824
vn -0.9401 -0.0000 0.3410
vn 0.4706 -0.0000 0.8824
vn 0.4706 -0.0000 -0.8824
vn -0.9401 -0.0000 -0.3410
vn 0.3067 -0.1214 -0.9440
vn 0.3067 0.1214 -0.9440
vn 0.3028 -0.1994 -0.9320
vn 0.3028 0.1994 -0.9320
vn 0.8022 -0.1295 -0.5828
vn 0.8022 0.1295 -0.5828
vn 0.7952 -0.1842 -0.5777
vn 0.7952 0.1842 -0.5777
vn 0.7952 -0.1842 0.5777
vn 0.7952 0.1842 0.5777
vn 0.4706 -0.0000 0.8823
vn 0.8022 -0.1295 0.5828
vn 0.8022 0.1295 0.5828
vn 0.3028 -0.1994 0.9320
vn 0.3028 0.1994 0.9320
vn 0.3067 -0.1214 0.9440
vn 0.3067 0.1214 0.9440
vn -0.3067 -0.1214 0.9440
vn -0.3067 0.1214 0.9440
vn -0.4706 -0.0000 0.8823
vn -0.3028 -0.1994 0.9320
vn -0.3028 0.1994 0.9320
vn -0.8022 -0.1295 0.5828
vn -0.8022 0.1295 0.5828
vn -0.7952 -0.1842 0.5777
vn -0.7952 0.1842 0.5777
vn -0.7952 -0.1842 -0.5777
vn -0.7952 0.1842 -0.5777
vn -0.8022 -0.1295 -0.5828
vn -0.8022 0.1295 -0.5828
vn -0.3028 -0.1994 -0.9320
vn -0.3028 0.1994 -0.9320
vn -0.3067 -0.1214 -0.9440
vn -0.3067 0.1214 -0.9440
vn 0.2878 0.3645 -0.8856
vn 0.2878 -0.3645 -0.8856
vn 0.2972 -0.2742 -0.9146
vn 0.2972 0.2742 -0.9146
vn 0.7541 0.3621 -0.5479
vn 0.7541 -0.3621 -0.5479
vn 0.7702 -0.3059 -0.5596
vn 0.7702 0.3059 -0.5596
vn 0.7702 0.3059 0.5596
vn 0.7702 -0.3059 0.5596
vn 0.7541 -0.3621 0.5479
vn 0.7541 0.3621 0.5479
vn 0.2972 0.2742 0.9146
vn 0.2972 -0.2742 0.9146
vn 0.2878 -0.3645 0.8856
vn 0.2878 0.3645 0.8856
vn -0.2878 0.3645 0.8856
vn -0.2878 -0.3645 0.8856
vn -0.2972 -0.2742 0.9146
vn -0.2972 0.2742 0.9146
vn -0.7541 0.3621 0.5479
vn -0.7541 -0.3621 0.5479
vn -0.7702 -0.3059 0.5596
vn -0.7702 0.3059 0.5596
vn -0.7702 0.3059 -0.5596
vn -0.7702 -0.3059 -0.5596
vn -0.7541 -0.3621 -0.5479
vn -0.7541 0.3621 -0.5479
vn -0.2972 0.2742 -0.9146
vn -0.2972 -0.2742 -0.9146
vn -0.2878 -0.3645 -0.8856
vn -0.2878 0.3645 -0.8856
vn 0.2980 -0.0000 -0.9546
vn -0.8021 -0.0000 -0.5971
vn -0.9999 -0.0000 0.0116
vn 0.8021 -0.0000 0.5971
vn 0.9999 -0.0000 -0.0116
vn 0.3200 -0.0000 -0.9474
vn -0.3200 -0.0000 0.9474
vn 0.3200 -0.0000 0.9474
vn -0.3200 -0.0000 -0.9474
vn -0.9999 -0.0000 -0.0116
vn -0.8021 -0.0000 0.5971
vn 0.9999 -0.0000 0.0116
vn 0.8021 -0.0000 -0.5971
vn -0.2980 -0.0000 -0.9546
vt 0.576067 0.016002
vt 0.576067 0.152425
vt 0.712489 0.152425
vt 0.712489 0.016002
vt 0.456535 0.184107
vt 0.543465 0.184107
vt 0.543465 0.271038
vt 0.456535 0.271038
vt 0.456535 0.357969
vt 0.543465 0.357969
vt 0.543465 0.444899
vt 0.456535 0.444899
vt 0.369604 0.271038
vt 0.369604 0.357969
vt 0.630396 0.271038
vt 0.630396 0.357969
vt 0.219367 0.970076
vt 0.219367 0.529924
vt 0.580633 0.529924
vt 0.580633 0.970076
vt 0.080633 0.529924
vt 0.080633 0.970076
vt 0.780633 0.970076
vt 0.719367 0.970076
vt 0.280633 0.970076
vt 0.719367 0.529924
vt 0.780633 0.529924
vt 0.280633 0.529924
vt 0.919367 0.970076
vt 0.919367 0.529924
vt 0.300000 1.000000
vt 0.400000 1.000000
vt 0.419367 0.970076
vt 0.419367 0.529924
vt 0.900000 0.500000
vt 0.800000 0.500000
vt 0.500000 1.000000
vt 0.600000 1.000000
vt 0.700000 1.000000
vt 0.900000 1.000000
vt 1.000000 1.000000
vt 0.800000 1.000000
vt -0.000000 1.000000
vt 0.100000 1.000000
vt 0.200000 1.000000
vt 0.273661 0.457635
vt 0.177384 0.488917
vt 0.081106 0.457635
vt 0.021603 0.375736
vt 0.021603 0.274504
vt 0.081106 0.192605
vt 0.177384 0.161323
vt 0.273661 0.192605
vt 0.333164 0.274504
vt 0.333164 0.375736
vt 0.300000 0.500000
vt 0.200000 0.500000
vt 0.100000 0.500000
vt -0.000000 0.500000
vt 0.400000 0.500000
vt 0.500000 0.500000
vt 0.600000 0.500000
vt 0.700000 0.500000
vt 1.000000 0.500000
vt 0.822266 0.483664
vt 0.919429 0.452094
vt 0.979480 0.369441
vt 0.979480 0.267277
vt 0.919429 0.184625
vt 0.822266 0.153055
vt 0.725102 0.184625
vt 0.665051 0.267277
vt 0.665051 0.369441
vt 0.725102 0.452094
vt 0.980633 0.970076
vt 0.980633 0.529924
vt 0.880633 0.970076
vt 0.880633 0.529924
vt 0.819367 0.970076
vt 0.819367 0.529924
vt 0.680633 0.970076
vt 0.680633 0.529924
vt 0.619367 0.970076
vt 0.619367 0.529924
vt 0.519367 0.970076
vt 0.519367 0.529924
vt 0.480633 0.970076
vt 0.480633 0.529924
vt 0.380633 0.970076
vt 0.380633 0.529924
vt 0.319367 0.970076
vt 0.319367 0.529924
vt 0.180633 0.970076
vt 0.180633 0.529924
vt 0.119367 0.970076
vt 0.119367 0.529924
vt 0.019367 0.970076
vt 0.019367 0.529924
s 1
usemtl lixeira
f 19/1/1 17/2/1 18/3/1 20/4/1
f 3/5/2 4/6/2 8/7/2 7/8/2
f 7/8/2 11/8/2 16/8/2 14/8/2
f 5/9/3 6/10/3 2/11/3 1/12/3
f 3/13/4 7/8/4 5/9/4 1/14/4
f 8/7/5 4/15/5 2/16/5 6/10/5
f 11/8/6 12/7/6 10/10/6 9/9/6
f 8/7/5 6/10/5 10/10/5 12/7/5
f 7/8/2 8/7/2 12/7/2 11/8/2
f 6/10/3 5/9/3 9/9/3 10/10/3
f 13/9/4 14/8/4 16/8/4 15/9/4
f 9/9/3 5/9/3 13/9/3 15/9/3
f 11/8/6 9/9/6 15/9/6 16/8/6
f 5/9/1 7/8/1 14/8/1 13/9/1
f 19/1/2 3/1/2 24/1/2 22/1/2
f 20/4/5 18/3/5 2/3/5 4/4/5
f 19/1/2 20/4/2 4/4/2 3/1/2
f 18/3/3 17/2/3 1/2/3 2/3/3
f 21/2/4 22/1/4 24/1/4 23/2/4
f 1/2/3 17/2/3 21/2/3 23/2/3
f 3/1/7 1/2/7 23/2/7 24/1/7
f 17/2/1 19/1/1 22/1/1 21/2/1
f 195/17/8 196/18/8 235/18/8 236/17/8
f 181/19/9 182/20/9 221/20/9 222/19/9
f 201/21/10 202/22/10 241/22/10 242/21/10
f 174/23/11 175/24/11 216/24/12 213/23/12
f 194/25/13 195/17/13 236/17/14 233/25/14
f 176/26/15 173/27/15 214/27/16 215/26/16
f 196/18/17 193/28/17 234/28/18 235/18/18
f 167/29/19 168/30/19 207/30/19 208/29/19
f 40/31/4 38/32/4 51/32/4 52/31/4
f 187/33/20 188/34/20 227/34/20 228/33/20
f 173/27/21 174/23/21 213/23/21 214/27/21
f 27/35/5 29/36/5 107/36/5 106/35/5
f 51/32/22 50/37/3 60/37/3 61/32/22
f 38/32/4 36/37/4 50/37/4 51/32/4
f 36/37/4 34/38/4 49/38/4 50/37/4
f 34/38/4 32/39/4 48/39/4 49/38/4
f 28/40/4 26/41/4 46/41/4 45/40/4
f 32/39/4 30/42/4 47/42/4 48/39/4
f 30/42/4 28/40/4 45/40/4 47/42/4
f 26/43/4 44/44/4 54/44/4 46/43/4
f 44/44/4 42/45/4 53/45/4 54/44/4
f 42/45/4 40/31/4 52/31/4 53/45/4
f 58/39/5 57/42/5 67/42/5 68/39/5
f 48/39/23 47/42/24 57/42/24 58/39/23
f 46/43/2 54/44/25 64/44/25 56/43/2
f 52/31/26 51/32/22 61/32/22 62/31/26
f 49/38/27 48/39/23 58/39/23 59/38/27
f 45/40/28 46/41/2 56/41/2 55/40/28
f 53/45/29 52/31/26 62/31/26 63/45/29
f 50/37/3 49/38/27 59/38/27 60/37/3
f 47/42/24 45/40/28 55/40/28 57/42/24
f 54/44/25 53/45/29 63/45/29 64/44/25
f 66/43/5 74/44/5 84/44/5 76/43/5
f 56/43/5 64/44/5 74/44/5 66/43/5
f 62/31/5 61/32/5 71/32/5 72/31/5
f 59/38/5 58/39/5 68/39/5 69/38/5
f 55/40/5 56/41/5 66/41/5 65/40/5
f 63/45/5 62/31/5 72/31/5 73/45/5
f 60/37/5 59/38/5 69/38/5 70/37/5
f 57/42/5 55/40/5 65/40/5 67/42/5
f 64/44/5 63/45/5 73/45/5 74/44/5
f 61/32/5 60/37/5 70/37/5 71/32/5
f 82/31/24 81/32/28 91/32/28 92/31/24
f 72/31/5 71/32/5 81/32/5 82/31/5
f 69/38/5 68/39/5 78/39/5 79/38/5
f 65/40/5 66/41/5 76/41/5 75/40/5
f 73/45/5 72/31/5 82/31/5 83/45/5
f 70/37/5 69/38/5 79/38/5 80/37/5
f 67/42/5 65/40/5 75/40/5 77/42/5
f 74/44/5 73/45/5 83/45/5 84/44/5
f 71/32/5 70/37/5 80/37/5 81/32/5
f 68/39/5 67/42/5 77/42/5 78/39/5
f 89/38/5 88/39/5 98/39/5 99/38/5
f 79/38/25 78/39/29 88/39/29 89/38/25
f 75/40/22 76/41/3 86/41/3 85/40/22
f 83/45/23 82/31/24 92/31/24 93/45/23
f 80/37/2 79/38/25 89/38/25 90/37/2
f 77/42/26 75/40/22 85/40/22 87/42/26
f 84/44/27 83/45/23 93/45/23 94/44/27
f 81/32/28 80/37/2 90/37/2 91/32/28
f 78/39/29 77/42/26 87/42/26 88/39/29
f 76/43/3 84/44/27 94/44/27 86/43/3
f 95/46/5 96/47/5 104/48/5 103/49/5 102/50/5 101/51/5 100/52/5 99/53/5 98/54/5 97/55/5
f 85/40/5 86/41/5 96/41/5 95/40/5
f 93/45/5 92/31/5 102/31/5 103/45/5
f 90/37/5 89/38/5 99/38/5 100/37/5
f 87/42/5 85/40/5 95/40/5 97/42/5
f 94/44/5 93/45/5 103/45/5 104/44/5
f 91/32/5 90/37/5 100/37/5 101/32/5
f 88/39/5 87/42/5 97/42/5 98/39/5
f 86/43/5 94/44/5 104/44/5 96/43/5
f 92/31/5 91/32/5 101/32/5 102/31/5
f 112/56/5 113/57/5 123/57/5 122/56/5
f 43/58/5 25/59/5 105/59/5 114/58/5
f 41/57/5 43/58/5 114/58/5 113/57/5
f 39/56/5 41/57/5 113/57/5 112/56/5
f 37/60/5 39/56/5 112/56/5 111/60/5
f 35/61/5 37/60/5 111/60/5 110/61/5
f 33/62/5 35/61/5 110/61/5 109/62/5
f 31/63/5 33/62/5 109/62/5 108/63/5
f 25/64/5 27/35/5 106/35/5 105/64/5
f 29/36/5 31/63/5 108/63/5 107/36/5
f 119/62/5 120/61/5 130/61/5 129/62/5
f 109/62/5 110/61/5 120/61/5 119/62/5
f 106/35/5 107/36/5 117/36/5 116/35/5
f 113/57/5 114/58/5 124/58/5 123/57/5
f 110/61/5 111/60/5 121/60/5 120/61/5
f 107/36/5 108/63/5 118/63/5 117/36/5
f 114/58/5 105/59/5 115/59/5 124/58/5
f 111/60/5 112/56/5 122/56/5 121/60/5
f 108/63/5 109/62/5 119/62/5 118/63/5
f 105/64/5 106/35/5 116/35/5 115/64/5
f 127/36/4 128/63/4 138/63/4 137/36/4
f 116/35/5 117/36/5 127/36/5 126/35/5
f 123/57/5 124/58/5 134/58/5 133/57/5
f 120/61/5 121/60/5 131/60/5 130/61/5
f 117/36/5 118/63/5 128/63/5 127/36/5
f 124/58/5 115/59/5 125/59/5 134/58/5
f 121/60/5 122/56/5 132/56/5 131/60/5
f 118/63/5 119/62/5 129/62/5 128/63/5
f 115/64/5 116/35/5 126/35/5 125/64/5
f 122/56/5 123/57/5 133/57/5 132/56/5
f 140/61/2 141/60/28 151/60/28 150/61/2
f 134/58/4 125/59/4 135/59/4 144/58/4
f 131/60/4 132/56/4 142/56/4 141/60/4
f 128/63/4 129/62/4 139/62/4 138/63/4
f 125/64/4 126/35/4 136/35/4 135/64/4
f 132/56/4 133/57/4 143/57/4 142/56/4
f 129/62/4 130/61/4 140/61/4 139/62/4
f 126/35/4 127/36/4 137/36/4 136/35/4
f 133/57/4 134/58/4 144/58/4 143/57/4
f 130/61/4 131/60/4 141/60/4 140/61/4
f 147/36/4 148/63/4 158/63/4 157/36/4
f 137/36/26 138/63/29 148/63/29 147/36/26
f 144/58/27 135/59/3 145/59/3 154/58/27
f 141/60/28 142/56/24 152/56/24 151/60/28
f 138/63/29 139/62/25 149/62/25 148/63/29
f 135/64/3 136/35/22 146/35/22 145/64/3
f 142/56/24 143/57/23 153/57/23 152/56/24
f 139/62/25 140/61/2 150/61/2 149/62/25
f 136/35/22 137/36/26 147/36/26 146/35/22
f 143/57/23 144/58/27 154/58/27 153/57/23
f 155/65/5 156/66/5 157/67/5 158/68/5 159/69/5 160/70/5 161/71/5 162/72/5 163/73/5 164/74/5
f 154/58/4 145/59/4 155/59/4 164/58/4
f 151/60/4 152/56/4 162/56/4 161/60/4
f 148/63/4 149/62/4 159/62/4 158/63/4
f 145/64/4 146/35/4 156/35/4 155/64/4
f 152/56/4 153/57/4 163/57/4 162/56/4
f 149/62/4 150/61/4 160/61/4 159/62/4
f 146/35/4 147/36/4 157/36/4 156/35/4
f 153/57/4 154/58/4 164/58/4 163/57/4
f 150/61/4 151/60/4 161/60/4 160/61/4
f 25/64/2 26/41/2 166/75/30 165/76/31
f 26/41/2 28/40/28 167/29/32 166/75/30
f 28/40/28 27/35/28 168/30/33 167/29/32
f 27/35/28 25/64/2 165/76/31 168/30/33
f 27/35/28 28/40/28 170/77/34 169/78/35
f 28/40/28 30/42/24 171/79/36 170/77/34
f 30/42/24 29/36/24 172/80/37 171/79/36
f 29/36/24 27/35/28 169/78/35 172/80/37
f 29/36/24 30/42/24 174/23/11 173/27/15
f 30/42/24 32/39/23 175/24/11 174/23/11
f 32/39/23 31/63/23 176/26/15 175/24/11
f 31/63/23 29/36/24 173/27/15 176/26/15
f 31/63/23 32/39/23 178/81/38 177/82/39
f 32/39/23 34/38/40 179/83/41 178/81/38
f 34/38/40 33/62/27 180/84/42 179/83/41
f 33/62/27 31/63/23 177/82/39 180/84/42
f 33/62/27 34/38/40 182/20/43 181/19/44
f 34/38/40 36/37/3 183/85/45 182/20/43
f 36/37/3 35/61/3 184/86/46 183/85/45
f 35/61/3 33/62/27 181/19/44 184/86/46
f 35/61/3 36/37/3 186/87/47 185/88/48
f 36/37/3 38/32/49 187/33/50 186/87/47
f 38/32/49 37/60/22 188/34/51 187/33/50
f 37/60/22 35/61/3 185/88/48 188/34/51
f 37/60/22 38/32/49 190/89/52 189/90/53
f 38/32/49 40/31/26 191/91/54 190/89/52
f 40/31/26 39/56/26 192/92/55 191/91/54
f 39/56/26 37/60/22 189/90/53 192/92/55
f 39/56/26 40/31/26 194/25/13 193/28/17
f 40/31/26 42/45/29 195/17/13 194/25/13
f 42/45/29 41/57/29 196/18/17 195/17/13
f 41/57/29 39/56/26 193/28/17 196/18/17
f 41/57/29 42/45/29 198/93/56 197/94/57
f 42/45/29 44/44/25 199/95/58 198/93/56
f 44/44/25 43/58/25 200/96/59 199/95/58
f 43/58/25 41/57/29 197/94/57 200/96/59
f 43/58/25 44/44/25 202/22/60 201/21/61
f 44/44/25 26/43/2 203/97/62 202/22/60
f 26/43/2 25/59/2 204/98/63 203/97/62
f 25/59/2 43/58/25 201/21/61 204/98/63
f 205/76/64 206/75/65 208/29/66 207/30/67
f 210/78/68 209/77/69 212/79/70 211/80/71
f 214/27/16 213/23/12 216/24/12 215/26/16
f 218/82/72 217/81/73 220/83/74 219/84/75
f 222/19/76 221/20/77 224/85/78 223/86/79
f 226/88/80 225/87/81 228/33/82 227/34/83
f 230/90/84 229/89/85 232/91/86 231/92/87
f 234/28/18 233/25/14 236/17/14 235/18/18
f 238/94/88 237/93/89 240/95/90 239/96/91
f 242/21/92 241/22/93 244/97/94 243/98/95
f 175/24/96 176/26/96 215/26/96 216/24/96
f 204/98/63 201/21/61 242/21/92 243/98/95
f 184/86/46 181/19/44 222/19/76 223/86/79
f 202/22/60 203/97/62 244/97/94 241/22/93
f 182/20/43 183/85/45 224/85/78 221/20/77
f 189/90/97 190/89/97 229/89/97 230/90/97
f 203/97/98 204/98/98 243/98/98 244/97/98
f 169/78/99 170/77/99 209/77/99 210/78/99
f 183/85/100 184/86/100 223/86/100 224/85/100
f 192/92/55 189/90/53 230/90/84 231/92/87
f 172/80/37 169/78/35 210/78/68 211/80/71
f 190/89/52 191/91/54 232/91/86 229/89/85
f 170/77/34 171/79/36 212/79/70 209/77/69
f 197/94/101 198/93/101 237/93/101 238/94/101
f 177/82/102 178/81/102 217/81/102 218/82/102
f 191/91/103 192/92/103 231/92/103 232/91/103
f 171/79/104 172/80/104 211/80/104 212/79/104
f 200/96/59 197/94/57 238/94/88 239/96/91
f 180/84/42 177/82/39 218/82/72 219/84/75
f 198/93/56 199/95/58 240/95/90 237/93/89
f 178/81/38 179/83/41 220/83/74 217/81/73
f 185/88/105 186/87/105 225/87/105 226/88/105
f 199/95/106 200/96/106 239/96/106 240/95/106
f 165/76/107 166/75/107 206/75/107 205/76/107
f 179/83/108 180/84/108 219/84/108 220/83/108
f 188/34/51 185/88/48 226/88/80 227/34/83
f 168/30/33 165/76/31 205/76/64 207/30/67
f 186/87/47 187/33/50 228/33/82 225/87/81
f 166/75/30 167/29/32 208/29/66 206/75/65
f 193/28/109 194/25/109 233/25/109 234/28/109
