# Blender 4.1.1
# www.blender.org
mtllib quadro.mtl
o Cube.001
v 0.238152 23.692101 -25.762791
v 0.238152 3.072822 -25.762791
v 0.238152 23.692101 25.762791
v 0.238152 3.072822 25.762791
v -0.238152 23.692101 -25.762791
v -0.238152 3.072822 -25.762791
v -0.238152 23.692101 25.762791
v -0.238152 3.072822 25.762791
v 0.238152 23.233955 24.617928
v 0.238152 23.233955 -24.617928
v 0.238152 3.530969 -24.617928
v 0.238152 3.530969 24.617928
v -0.221042 23.233955 24.617928
v -0.221042 23.233955 -24.617928
v -0.221042 3.530969 -24.617928
v -0.221042 3.530969 24.617928
v 0.238152 3.517973 -18.116673
v 0.238152 3.072821 -18.116673
v 0.238152 3.517973 -25.762791
v 0.238152 3.072821 -25.762791
v 2.945543 3.517973 -18.116673
v 2.945543 3.072821 -18.116673
v 2.945543 3.517973 -25.762791
v 2.945543 3.072821 -25.762791
v 3.474127 3.517973 -18.116673
v 3.474127 3.072821 -18.116673
v 3.474127 3.517973 -25.762791
v 3.474127 3.072821 -25.762791
v 2.945543 3.866907 -18.116673
v 2.945543 3.866907 -25.762791
v 3.474127 3.866907 -18.116673
v 3.474127 3.866907 -25.762791
vn 1.0000 -0.0000 -0.0000
vn -0.0000 -0.0000 1.0000
vn -1.0000 -0.0000 -0.0000
vn -0.0000 -0.0000 -1.0000
vn -0.0000 1.0000 -0.0000
vn -0.0000 -1.0000 -0.0000
vt 0.400245 0.222890
vt 0.400245 0.360159
vt 0.397195 0.357109
vt 0.397195 0.225940
vt 0.330382 0.160787
vt 0.330382 0.023518
vt 0.467651 0.023518
vt 0.467651 0.160787
vt 0.262976 0.544464
vt 0.262976 0.407195
vt 0.400245 0.407195
vt 0.400245 0.544464
vt 0.447281 0.360159
vt 0.447281 0.222890
vt 0.584550 0.222890
vt 0.584550 0.360159
vt 0.584550 0.544464
vt 0.447281 0.544464
vt 0.447281 0.407195
vt 0.584550 0.407195
vt 0.651956 0.160787
vt 0.514687 0.160787
vt 0.514687 0.023518
vt 0.651956 0.023518
vt 0.262976 0.591500
vt 0.394145 0.591500
vt 0.394145 0.723838
vt 0.262976 0.723838
vt 0.262976 0.360159
vt 0.262976 0.222890
vt 0.266026 0.225940
vt 0.266026 0.357109
vt 0.631586 0.533433
vt 0.631586 0.402264
vt 0.762755 0.402264
vt 0.762755 0.533433
vt 0.572350 0.723838
vt 0.441181 0.723838
vt 0.441181 0.591500
vt 0.572350 0.591500
vt 0.619386 0.591500
vt 0.750555 0.591500
vt 0.750555 0.723838
vt 0.619386 0.723838
vt 0.762755 0.355228
vt 0.631586 0.355228
vt 0.631586 0.222890
vt 0.762755 0.222890
vt 0.026482 0.976482
vt 0.023518 0.976482
vt 0.023518 0.956112
vt 0.026482 0.956112
vt 0.023518 0.175854
vt 0.026482 0.175854
vt 0.023518 0.023518
vt 0.026482 0.023518
vt 0.146211 0.803776
vt 0.143247 0.803776
vt 0.143247 0.023518
vt 0.146211 0.023518
vt 0.195570 0.803776
vt 0.195570 0.023518
vt 0.215940 0.023518
vt 0.215940 0.803776
vt 0.075841 0.803776
vt 0.075841 0.023518
vt 0.096211 0.023518
vt 0.096211 0.803776
vt 0.701956 0.043888
vt 0.698993 0.043888
vt 0.698993 0.023518
vt 0.701956 0.023518
vt 0.146211 0.956112
vt 0.143247 0.956112
vt 0.028805 0.023518
vt 0.028805 0.175854
vt 0.096211 0.956112
vt 0.075841 0.956112
vt 0.283346 0.175854
vt 0.262976 0.175854
vt 0.262976 0.023518
vt 0.283346 0.023518
vt 0.704279 0.023518
vt 0.704279 0.043888
vt 0.698993 0.111294
vt 0.698993 0.090924
vt 0.701316 0.090924
vt 0.701316 0.111294
vt 0.148534 0.803776
vt 0.148534 0.956112
s 0
usemtl quadro
f 3/5/2 7/8/2 8/7/2 4/6/2
f 7/9/3 5/12/3 6/11/3 8/10/3
f 5/13/4 1/16/4 2/15/4 6/14/4
f 3/17/5 1/20/5 5/19/5 7/18/5
f 8/21/6 6/24/6 2/23/6 4/22/6
f 11/25/5 15/28/5 16/27/5 12/26/5
f 14/33/1 13/36/1 16/35/1 15/34/1
f 9/37/6 13/40/6 14/39/6 10/38/6
f 12/41/4 16/44/4 13/43/4 9/42/4
f 10/45/2 14/48/2 15/47/2 11/46/2
usemtl borda
f 4/1/1 12/4/1 9/3/1 3/2/1
f 1/29/1 10/32/1 11/31/1 2/30/1
f 2/30/1 11/31/1 12/4/1 4/1/1
f 3/2/1 9/3/1 10/32/1 1/29/1
f 17/49/3 19/52/3 20/51/3 18/50/3
f 19/52/4 23/54/4 24/53/4 20/51/4
f 23/54/4 27/56/4 28/55/4 24/53/4
f 21/57/2 17/60/2 18/59/2 22/58/2
f 19/61/5 17/64/5 21/63/5 23/62/5
f 24/65/6 22/68/6 18/67/6 20/66/6
f 27/69/1 25/72/1 26/71/1 28/70/1
f 22/58/2 26/74/2 25/73/2 21/57/2
f 23/54/4 30/76/4 32/75/4 27/56/4
f 24/65/6 28/78/6 26/77/6 22/68/6
f 29/79/5 31/82/5 32/81/5 30/80/5
f 27/69/1 32/84/1 31/83/1 25/72/1
f 21/85/3 29/88/3 30/87/3 23/86/3
f 25/73/2 31/90/2 29/89/2 21/57/2
