# Blender 4.1.1
# www.blender.org
mtllib mesa.mtl
o Plane
o Mesa
v -2.625478 3.899825 -16.968079
v -0.625478 3.899825 -16.968079
v -2.625478 1.899826 -16.969465
v -0.625478 1.899826 -16.969465
v -2.625478 1.899918 -17.103285
v -2.625478 3.899918 -17.101898
v -0.625478 3.899918 -17.101898
v -0.625478 1.899918 -17.103285
v 1.003778 3.899825 -16.968079
v 1.003778 1.899826 -16.969465
v 1.003778 3.899918 -17.101898
v 1.003778 1.899918 -17.103285
v -0.625478 1.400216 -16.969812
v -2.625478 1.400216 -16.969812
v -0.625478 1.400309 -17.103632
v -2.625478 1.400309 -17.103632
v 1.003778 1.400216 -16.969812
v 1.003778 1.400309 -17.103632
v -1.000000 3.894720 0.976699
v 1.000000 3.894720 0.976699
v -1.000000 3.894720 -0.976699
v 1.000000 3.894720 -0.976699
v -1.000000 4.017639 -0.976699
v -1.000000 4.017639 0.976699
v 1.000000 4.017639 0.976699
v 1.000000 4.017639 -0.976699
v 1.000000 3.894720 -17.113340
v -1.000000 3.894720 -17.113340
v 1.000000 4.017639 -17.113340
v -1.000000 4.017639 -17.113340
v -2.635608 3.894720 -0.976699
v -2.635608 3.894720 0.976699
v -2.635608 4.017639 -0.976699
v -2.635608 4.017639 0.976699
v -2.635608 3.894720 -17.113340
v -2.635608 4.017639 -17.113340
v -2.641777 3.930507 -7.993568
v -0.641777 3.930507 -7.993568
v -2.641777 1.930511 -7.997141
v -0.641777 1.930511 -7.997141
v -2.641777 1.930750 -8.130961
v -2.641777 3.930746 -8.127388
v -0.641777 3.930746 -8.127388
v -0.641777 1.930750 -8.130961
v 0.987479 3.930507 -7.993568
v 0.987479 1.930511 -7.997141
v 0.987479 3.930746 -8.127388
v 0.987479 1.930750 -8.130961
v -0.641777 1.430902 -7.998034
v -2.641777 1.430902 -7.998034
v -0.641777 1.431141 -8.131854
v -2.641777 1.431141 -8.131854
v 0.987479 1.430902 -7.998034
v 0.987479 1.431141 -8.131854
v -2.641777 3.930508 0.966903
v -0.641777 3.930508 0.966903
v -2.641777 1.930509 0.968802
v -0.641777 1.930509 0.968802
v -2.641777 1.930382 0.834982
v -2.641777 3.930381 0.833083
v -0.641777 3.930381 0.833083
v -0.641777 1.930382 0.834982
v 0.987479 3.930508 0.966903
v 0.987479 1.930509 0.968802
v 0.987479 3.930381 0.833083
v 0.987479 1.930382 0.834982
v -0.641777 1.430900 0.969276
v -2.641777 1.430900 0.969276
v -0.641777 1.430773 0.835456
v -2.641777 1.430773 0.835456
v 0.987479 1.430900 0.969276
v 0.987479 1.430773 0.835456
vn -0.0000 -0.0007 1.0000
vn -0.0000 0.0007 -1.0000
vn -0.0000 1.0000 0.0007
vn -1.0000 -0.0000 -0.0000
vn 1.0000 -0.0000 -0.0000
vn -0.0000 -1.0000 -0.0007
vn -0.0000 -1.0000 -0.0000
vn -0.0000 1.0000 -0.0000
vn -0.0000 -0.0000 1.0000
vn -0.0000 -0.0000 -1.0000
vn -0.0000 -0.0018 1.0000
vn -0.0000 0.0018 -1.0000
vn -0.0000 1.0000 0.0018
vn -0.0000 -1.0000 -0.0018
vn -0.0000 0.0009 1.0000
vn -0.0000 -0.0009 -1.0000
vn -0.0000 1.0000 -0.0009
vn -0.0000 -1.0000 0.0009
vt 0.000000 0.000000
vt 0.000000 1.000000
vt 1.000000 1.000000
vt 1.000000 0.000000
s 0
usemtl Material.005
f 1/1/1 3/2/1 4/3/1 2/4/1
f 6/1/2 7/4/2 8/3/2 5/2/2
f 7/4/3 2/4/3 9/4/3 11/4/3
f 3/2/4 1/1/4 6/1/4 5/2/4
f 3/2/4 5/2/4 16/2/4 14/2/4
f 1/1/3 2/4/3 7/4/3 6/1/3
f 9/4/5 10/3/5 12/3/5 11/4/5
f 10/3/1 4/3/1 13/3/1 17/3/1
f 8/3/2 7/4/2 11/4/2 12/3/2
f 2/4/1 4/3/1 10/3/1 9/4/1
f 13/3/6 14/2/6 16/2/6 15/3/6
f 13/3/6 15/3/6 18/3/6 17/3/6
f 8/3/2 12/3/2 18/3/2 15/3/2
f 5/2/2 8/3/2 15/3/2 16/2/2
f 4/3/1 3/2/1 14/2/1 13/3/1
f 12/3/5 10/3/5 17/3/5 18/3/5
f 19/1/7 21/2/7 22/3/7 20/4/7
f 24/1/8 25/4/8 26/3/8 23/2/8
f 24/1/8 23/2/8 33/2/8 34/1/8
f 19/1/9 20/4/9 25/4/9 24/1/9
f 20/4/5 22/3/5 26/3/5 25/4/5
f 28/2/7 21/2/7 31/2/7 35/2/7
f 27/3/10 28/2/10 30/2/10 29/3/10
f 26/3/5 22/3/5 27/3/5 29/3/5
f 23/2/8 26/3/8 29/3/8 30/2/8
f 22/3/7 21/2/7 28/2/7 27/3/7
f 31/2/4 33/2/4 36/2/4 35/2/4
f 31/2/4 32/1/4 34/1/4 33/2/4
f 21/2/7 19/1/7 32/1/7 31/2/7
f 19/1/9 24/1/9 34/1/9 32/1/9
f 23/2/8 30/2/8 36/2/8 33/2/8
f 30/2/10 28/2/10 35/2/10 36/2/10
f 37/1/11 39/2/11 40/3/11 38/4/11
f 42/1/12 43/4/12 44/3/12 41/2/12
f 43/4/13 38/4/13 45/4/13 47/4/13
f 39/2/4 37/1/4 42/1/4 41/2/4
f 39/2/4 41/2/4 52/2/4 50/2/4
f 37/1/13 38/4/13 43/4/13 42/1/13
f 45/4/5 46/3/5 48/3/5 47/4/5
f 46/3/11 40/3/11 49/3/11 53/3/11
f 44/3/12 43/4/12 47/4/12 48/3/12
f 38/4/11 40/3/11 46/3/11 45/4/11
f 49/3/14 50/2/14 52/2/14 51/3/14
f 49/3/14 51/3/14 54/3/14 53/3/14
f 44/3/12 48/3/12 54/3/12 51/3/12
f 41/2/12 44/3/12 51/3/12 52/2/12
f 40/3/11 39/2/11 50/2/11 49/3/11
f 48/3/5 46/3/5 53/3/5 54/3/5
f 55/1/15 57/2/15 58/3/15 56/4/15
f 60/1/16 61/4/16 62/3/16 59/2/16
f 61/4/17 56/4/17 63/4/17 65/4/17
f 57/2/4 55/1/4 60/1/4 59/2/4
f 57/2/4 59/2/4 70/2/4 68/2/4
f 55/1/17 56/4/17 61/4/17 60/1/17
f 63/4/5 64/3/5 66/3/5 65/4/5
f 64/3/15 58/3/15 67/3/15 71/3/15
f 62/3/16 61/4/16 65/4/16 66/3/16
f 56/4/15 58/3/15 64/3/15 63/4/15
f 67/3/18 68/2/18 70/2/18 69/3/18
f 67/3/18 69/3/18 72/3/18 71/3/18
f 62/3/16 66/3/16 72/3/16 69/3/16
f 59/2/16 62/3/16 69/3/16 70/2/16
f 58/3/15 57/2/15 68/2/15 67/3/15
f 66/3/5 64/3/5 71/3/5 72/3/5
